# xmcd CD database file
#
# Track frame offsets:
#	150
#	35975
#	65688
#	78445
#	104269
#	134701
#	158715
#	196517
#	203156
#	231352
#	242527
#	273858
#	300983
#
# Disc length: 4368 seconds
#
# Revision: 0
# Processed by: cddbd v1.5.1PL0 Copyright (c) Steve Scherf et al.
# Submitted via: CDex 1.51
#
DISCID=ae110e0d
DTITLE=Bela Fleck and The Flecktones - Live at the quick
DYEAR=1990
DGENRE=Jazz
TTITLE0=Intro (That old thing)/ Earth jam
TTITLE1=Zona mona
TTITLE2=Ovombo summit
TTITLE3=Hall of mirrors
TTITLE4=Scratch and sniff
TTITLE5=Amazing grace
TTITLE6=Big country
TTITLE7=Interlude
TTITLE8=Lover's leap
TTITLE9=Alash khem
TTITLE10=Moment so close
TTITLE11=Prelude from Bach violin partitia #3
TTITLE12=Hoedown
EXTD=YEAR: 1990
EXTT0=
EXTT1=
EXTT2=
EXTT3=
EXTT4=
EXTT5=
EXTT6=
EXTT7=
EXTT8=
EXTT9=
EXTT10=
EXTT11=
EXTT12=
PLAYORDER=
